<svg width="72" height="45" viewBox="0 0 72 45" fill="none" xmlns="http://www.w3.org/2000/svg">
<rect x="24" y="9" width="26" height="27" fill="white"/>
<path d="M24.9382 9.09091V36H19.4197L8.71129 20.4695H8.54048V36H2.03658V9.09091H7.63388L18.2241 24.5952H18.4474V9.09091H24.9382Z" fill="white"/>
<path d="M49.0366 36V9.09091H60.2575C62.2721 9.09091 63.9583 9.37559 65.3161 9.94496C66.6825 10.5143 67.7074 11.3114 68.3906 12.3363C69.0826 13.3611 69.4286 14.5481 69.4286 15.897C69.4286 16.9219 69.214 17.8372 68.7848 18.6431C68.3556 19.4402 67.7643 20.1016 67.011 20.6271C66.2577 21.1527 65.3861 21.5206 64.3963 21.7308V21.9936C65.4825 22.0462 66.4854 22.3396 67.4052 22.8739C68.3337 23.4083 69.0782 24.1528 69.6389 25.1076C70.1995 26.0536 70.4798 27.1748 70.4798 28.4712C70.4798 29.9165 70.1119 31.2086 69.3761 32.3473C68.6403 33.4773 67.576 34.3707 66.1832 35.0277C64.7905 35.6759 63.0999 36 61.1115 36H49.0366ZM55.5405 30.7575H59.5611C60.9714 30.7575 62.0094 30.4903 62.6751 29.956C63.3496 29.4216 63.6868 28.6771 63.6868 27.7223C63.6868 27.0303 63.5247 26.4347 63.2006 25.9354C62.8765 25.4273 62.4167 25.0375 61.821 24.766C61.2254 24.4857 60.5115 24.3455 59.6793 24.3455H55.5405V30.7575ZM55.5405 20.1541H59.1406C59.8501 20.1541 60.4808 20.0359 61.0327 19.7994C61.5845 19.5629 62.0137 19.2212 62.3203 18.7745C62.6357 18.3278 62.7933 17.7891 62.7933 17.1584C62.7933 16.2562 62.4736 15.5466 61.8342 15.0298C61.1947 14.513 60.3319 14.2546 59.2457 14.2546H55.5405V20.1541Z" fill="white"/>
<path d="M42.6957 17.881C42.5468 17.3292 42.3278 16.843 42.0387 16.4226C41.7496 15.9934 41.3949 15.6299 40.9744 15.332C40.554 15.0342 40.0722 14.8108 39.5291 14.6619C38.986 14.5043 38.3904 14.4254 37.7422 14.4254C36.437 14.4254 35.3071 14.7408 34.3523 15.3714C33.4062 16.0021 32.6748 16.9219 32.158 18.1307C31.6412 19.3307 31.3828 20.7892 31.3828 22.506C31.3828 24.2317 31.6325 25.7032 32.1317 26.9208C32.631 28.1384 33.3537 29.0669 34.2997 29.7063C35.2457 30.3458 36.3932 30.6655 37.7422 30.6655C38.9335 30.6655 39.9408 30.4728 40.7642 30.0874C41.5964 29.6932 42.227 29.137 42.6562 28.4187C43.0855 27.7004 43.3001 26.8551 43.3001 25.8828L44.5089 26.0273H37.9656V21.2841H49.5675V24.8448C49.5675 27.2537 49.055 29.3165 48.0302 31.0334C47.0141 32.7502 45.6126 34.0685 43.8256 34.9883C42.0475 35.908 40.0021 36.3679 37.6896 36.3679C35.1231 36.3679 32.8675 35.8117 30.9229 34.6992C28.9783 33.5868 27.4629 32.0013 26.3768 29.9428C25.2906 27.8756 24.7475 25.4229 24.7475 22.5849C24.7475 20.3775 25.076 18.4197 25.733 16.7116C26.3899 14.9948 27.3053 13.5407 28.479 12.3494C29.6616 11.1581 31.0281 10.2559 32.5785 9.64275C34.1377 9.02959 35.8151 8.72301 37.6108 8.72301C39.17 8.72301 40.6197 8.94638 41.9599 9.39311C43.3088 9.83984 44.5001 10.4705 45.5337 11.2852C46.5761 12.0998 47.4214 13.0677 48.0696 14.1889C48.7178 15.3101 49.1207 16.5408 49.2784 17.881H42.6957Z" fill="black"/>
</svg>
